<svg width="57" height="58" viewBox="0 0 57 58" fill="none" xmlns="http://www.w3.org/2000/svg">
<path d="M1 41.4392V56.8665M1 41.4392L14.6304 53.6869M1 41.4392L16.663 34.2939M1 41.4392L12.1196 22.2247M1 56.8665H19.5326L14.6304 53.6869M1 56.8665L14.6304 53.6869M14.6304 53.6869V46.0321L18.5761 39.3194L18.627 39.4854M23.7174 31.0758L21.5652 34.8443L27.0652 52.7447L28.5 56.8665H23.9565L18.627 39.4854M23.7174 31.0758L22.174 17.886H21.8705H19.6607L25.308 13.5006V2.53735L19.1696 9.11533H17.2053L10.5759 2.53735V13.5006L17.2053 17.886H14.5537L14.5089 17.9657L12.1196 22.2247M23.7174 31.0758L16.663 34.2939M23.7174 31.0758L12.1196 22.2247M18.627 39.4854L16.663 34.2939" stroke="#C6A664" stroke-width="2"/>
<path d="M56 41.4392V56.8665M56 41.4392L42.3696 53.6869M56 41.4392L40.337 34.2939M56 41.4392L44.8804 22.2247M56 56.8665H37.4674L42.3696 53.6869M56 56.8665L42.3696 53.6869M42.3696 53.6869V46.0321L38.4239 39.3194L38.373 39.4854M33.2826 31.0758L35.4348 34.8443L29.9348 52.7447L28.5 56.8665H33.0435L38.373 39.4854M33.2826 31.0758L34.826 17.886H35.1295H37.3393L31.692 13.5006V2.53735L37.8304 9.11533H39.7947L46.4241 2.53735V13.5006L39.7947 17.886H42.4463L42.4911 17.9657L44.8804 22.2247M33.2826 31.0758L40.337 34.2939M33.2826 31.0758L44.8804 22.2247M38.373 39.4854L40.337 34.2939" stroke="#C6A664" stroke-width="2"/>
</svg>
